# xmcd
#
# Track frame offsets:
#	150
#	18390
#	30470
#	73819
#	90625
#	108207
#	123507
#	136266
#	151340
#	166654
#
# Disc length: 2453 seconds
# Revision: 0
# Processed by: cddbd v1.5.2PL0 Copyright (c) Steve Scherf et al.
# Submitted via: dBpowerAMP V12.0
#
DISCID=7509930a
DTITLE=Karl Blau - Introducing Karl Blau
DYEAR=2015
DGENRE=
TTITLE0=That's How I Got To Memphis
TTITLE1=Six White Horses
TTITLE2=Fallin' Rain
TTITLE3=Let the World Go By
TTITLE4=If I Needed You
TTITLE5=Woman, Sensuous Woman
TTITLE6=Dreaming My Dreams
TTITLE7=To Love Somebody
TTITLE8=Homecoming
TTITLE9=No Regrets
EXTD=
EXTT0=
EXTT1=
EXTT2=
EXTT3=
EXTT4=
EXTT5=
EXTT6=
EXTT7=
EXTT8=
EXTT9=
PLAYORDER=
